<svg width="17" height="11" viewBox="0 0 17 11" fill="none" xmlns="http://www.w3.org/2000/svg">
<path d="M11.0119 0.00106842C13.1117 0.00106842 14.949 1.19921 15.8796 2.94849C15.4501 2.42131 14.8774 1.89413 13.9707 1.6545C13.231 0.743912 10.2961 0.0969195 8.31563 0.719954C8.91216 0.360511 9.9143 -0.0228944 11.0119 0.00106842ZM15.9989 3.21208C14.4718 2.06187 10.8449 1.24713 7.0987 1.63054C6.97939 1.75035 6.86008 1.89413 6.74076 2.03791C10.654 1.67846 13.8514 3.21208 14.9967 4.14663L15.0445 4.48209C15.7365 4.72175 16.3568 5.36873 16.4761 5.87194C16.4761 5.75215 16.5 5.63232 16.5 5.5125C16.5 4.67382 16.3091 3.90701 15.9989 3.21208ZM16.4761 5.91986C16.4046 6.7346 16.1659 7.47746 15.808 8.14843V8.17237V8.14843C15.6171 7.59729 15.0445 7.16594 14.7104 7.02217L14.8536 6.61481C13.5889 5.41665 10.4154 3.69134 5.78633 3.85909L5.92951 3.45171C10.6063 3.3319 13.8514 4.26646 16.4761 5.91986ZM15.7365 8.26825C15.3785 8.89126 14.9013 9.41845 14.3286 9.84976C14.1855 9.56222 13.8514 9.15485 13.4219 8.89126L13.6128 8.69956C11.8948 7.21387 8.98374 5.82402 5.5 5.70423C5.5 5.56042 5.5 5.44063 5.5 5.29682C10.0097 5.39271 13.0401 6.47104 15.7365 8.26825ZM14.1377 9.99357C11.5607 8.41202 10.0575 7.38162 5.83407 7.11802C5.8102 7.11802 5.78633 7.11802 5.76246 7.11802L5.90564 7.52539C5.92951 7.52539 5.97722 7.52539 6.00109 7.52539C9.50869 8.1005 10.9642 9.41845 11.6801 10.0415L11.4176 10.1373C11.7516 10.4009 11.8948 10.6405 11.9425 10.8802C12.7299 10.7843 13.4935 10.4489 14.1377 9.99357ZM11.6323 10.9521C10.3916 9.75391 8.45878 9.22676 6.74076 8.96316C6.86008 9.10693 6.97939 9.22676 7.0987 9.37053C7.90999 9.41845 9.41325 9.96959 9.53253 10.4249C9.5564 10.5687 8.79285 10.4009 8.26789 10.2811C8.91216 10.6405 9.74728 11 10.9642 11C11.2028 11 11.4176 10.976 11.6323 10.9521Z" fill="#0095DA"/>
<path d="M5.51598 0C6.49927 0 7.4346 0.263616 8.25 0.718953C7.81832 0.958606 7.41062 1.27015 7.05085 1.62962H1.60683C2.59011 0.623092 3.98112 0 5.51598 0ZM6.69111 2.03703C6.33138 2.46841 6.04362 2.94771 5.85174 3.47494H0.407704C0.623546 2.94771 0.911335 2.46841 1.24709 2.03703H6.69111ZM5.70786 3.85839C5.56394 4.31372 5.492 4.79303 5.46802 5.29628H0C0.0239826 4.79303 0.0959302 4.31372 0.239826 3.85839H5.70786ZM5.44404 5.70371C5.46802 6.20696 5.53996 6.68627 5.68388 7.1416H0.239826C0.0959302 6.68627 0 6.20696 0 5.70371H5.44404ZM5.85174 7.52506C6.0676 8.05229 6.35536 8.53159 6.71513 8.96294H1.27108C0.911339 8.53159 0.623546 8.05229 0.407704 7.52506H5.85174ZM7.05085 9.37034C7.41062 9.72982 7.79434 10.0414 8.25 10.281C7.4346 10.7364 6.52325 11 5.51598 11C3.98112 11 2.59011 10.3769 1.60683 9.37034H7.05085Z" fill="#0095DA"/>
</svg>
